<mxfile host="app.diagrams.net" modified="2023-07-03T09:54:31.588Z" agent="Mozilla/5.0 (Macintosh; Intel Mac OS X 10_15_7) AppleWebKit/537.36 (KHTML, like Gecko) Chrome/114.0.0.0 Safari/537.36" version="21.5.2" etag="2pspBH44CEIC2ddxOrVg" type="github">
  <diagram name="Страница 1" id="X0QhZdD5MULFpaHrJgG5">
    <mxGraphModel>
      <root>
        <mxCell id="0" />
        <mxCell id="1" parent="0" />
      </root>
    </mxGraphModel>
  </diagram>
</mxfile>
